<svg width="500" height="512" viewBox="0 0 460 512" xmlns="http://www.w3.org/2000/svg">
  <path d="M159 145c14 41 20 81 20 125v41a48 48 0 0096 0v-47c0-42 6-80 18-119z" fill="#ffbdbc"/>
  <path d="M374 0c-19 0-37 7-50 20a69 69 0 00-20 41H77a10 10 0 00-9 14l15 30c29 58 42 107 42 165v41c0 53 40 96 91 102v33l-94 47a10 10 0 005 19h198a10 10 0 005-19l-94-47v-33c52-5 93-49 93-102v-47c0-44 7-84 24-126 7 3 14 4 21 4a71 71 0 000-142zM169 492l57-28 57 28zm140-228v47a82 82 0 01-164 0v-41c0-60-14-114-44-174l-8-15h265l-2 3c-33 61-47 117-47 180zm65-142l-13-2 13-27 9-17a10 10 0 00-9-15h-50c4-24 25-41 50-41a51 51 0 010 102z" fill="#f55b5a"/>
</svg>
